<svg id="Ebene_1" data-name="Ebene 1" xmlns="http://www.w3.org/2000/svg" viewBox="0 0 100 100"><defs><style>.cls-1{fill:#7fc17f;}</style></defs><path class="cls-1" d="M77.1,36.55c0-9.1-11.7-17-26.9-17s-27.3,7.8-27.3,16.9a.71.71,0,0,0,.3.6l22.9,17.6-9.2,9.2a3.68,3.68,0,0,0,0,5.3l10.2,10.2a3.62,3.62,0,0,0,5.2,0l10.2-10.2a3.68,3.68,0,0,0,0-5.3l-8.8-8.8,23.1-17.9A.86.86,0,0,0,77.1,36.55ZM50.2,21.35c12.2,0,22.3,5.1,24.6,11.7A20,20,0,0,0,67.7,32c-3.9,0-7.1.8-8.8,2-1.7-1.2-4.9-2-8.8-2s-7,.8-8.7,2c-1.7-1.2-4.9-2-8.8-2a18.32,18.32,0,0,0-7.2,1.2C27.8,26.45,38,21.35,50.2,21.35Zm-.4,31.3-7-16.5a.45.45,0,0,1,0-.5c.5-.9,3.2-2,7.4-2,4,0,6.7,1,7.3,1.9a.64.64,0,0,1,0,.6l-7,16.6C50.3,52.75,50,52.65,49.8,52.65ZM32.7,33.75c4.2,0,7.4,1.4,7.8,2.3l7.2,17.2a.1.1,0,0,0-.1.1L25.3,36C25.6,35,28.3,33.75,32.7,33.75Zm28.4,34L50.9,78a1.82,1.82,0,0,1-2.4,0L38.3,67.75a1.69,1.69,0,0,1,0-2.4l10.2-10.2a1.66,1.66,0,0,1,1.2-.5,1.85,1.85,0,0,1,1.2.5l10.2,10.2A1.82,1.82,0,0,1,61.1,67.75Zm-8.7-14.3,7-17.1c.5-1.3,3.6-2.6,8.2-2.6,4.4,0,7.1,1.2,7.4,2.1Z"/><path class="cls-1" d="M49.8,58.05h-.1a1.38,1.38,0,0,0-.3.4l-4.6,4.6a.38.38,0,0,0,0,.6,18.48,18.48,0,0,1,1.4,1.4.38.38,0,0,0,.6,0l2.8-2.8c.2-.2.3-.2.5,0,.9,1,1.9,1.9,2.8,2.9.2.2.3.2.5,0a18.48,18.48,0,0,1,1.4-1.4.38.38,0,0,0,0-.6l-4.5-4.5A3.81,3.81,0,0,0,49.8,58.05Z"/><path class="cls-1" d="M44.8,66.35,43.4,65c-.2-.2-.3-.2-.5,0-.5.6-1.1,1.1-1.6,1.6v.1c.6.5,1.1,1.1,1.7,1.6.2.2.3.2.5,0l1.5-1.5A.4.4,0,0,0,44.8,66.35Z"/><path class="cls-1" d="M53.3,68.05c-.2-.2-.3-.2-.5,0L50,70.85c-.2.2-.3.2-.5,0l-2.8-2.8c-.1-.1-.2-.1-.3-.2-.1.1-.1.1-.2.1l-1.6,1.6c-.1.1-.1.2,0,.4l4.9,4.9c.1.1.2.2.4,0L54.8,70c.1-.1.2-.3,0-.4A10.61,10.61,0,0,1,53.3,68.05Z"/><path class="cls-1" d="M49.7,68.55c.1-.1.1-.1.2-.1l1.6-1.6c.2-.2.1-.3,0-.4l-1.6-1.6c-.2-.2-.3-.2-.4,0l-1.6,1.6c-.2.2-.2.3,0,.4l1.6,1.6C49.6,68.45,49.7,68.45,49.7,68.55Z"/><path class="cls-1" d="M54.6,66.75l1.5,1.5c.2.2.3.2.5,0l1.5-1.5.2-.2c0-.1-.1-.1-.1-.2l-1.6-1.6c-.2-.2-.3-.1-.4,0l-1.5,1.5C54.4,66.45,54.4,66.65,54.6,66.75Z"/></svg>