<svg id="Ebene_1" data-name="Ebene 1" xmlns="http://www.w3.org/2000/svg" viewBox="0 0 100 100"><defs><style>.cls-1{fill:var(--green);}</style></defs><path class="cls-1" d="M78.6,65a6.41,6.41,0,0,0,0-10,6.41,6.41,0,0,0,0-10A6.34,6.34,0,0,0,81,40a8.52,8.52,0,0,0-.4-2.3,5.38,5.38,0,0,0,.4-2.2V30c0-6.9-9.6-10-31-10S19,23.1,19,30V44.5a6.71,6.71,0,0,0,.6,2.8A6.26,6.26,0,0,0,19,50a6.34,6.34,0,0,0,2.4,5,6.41,6.41,0,0,0,0,10A6.34,6.34,0,0,0,19,70c0,6.9,9.6,10,31,10s31-3.1,31-10A6.34,6.34,0,0,0,78.6,65ZM50,48a112.63,112.63,0,0,1-18.4-1.2,5.87,5.87,0,0,0,.4-2.3V41.8c2,.3,4.3.6,6.9.8A8,8,0,0,0,46,47h7a8,8,0,0,0,7.1-4.3,60.62,60.62,0,0,0,13.3-2.1,5.46,5.46,0,0,0,5.6-.8C79.4,47.8,58.5,48,50,48Zm27.9-.9C74.4,50.4,65.3,52,50,52q-13.95,0-21.3-1.8a5.48,5.48,0,0,0,1.8-1.6A109.25,109.25,0,0,0,50,50c13.4,0,22.2-1.2,26.9-3.8A9,9,0,0,1,77.9,47.1ZM38,39.6a6.47,6.47,0,0,0,.4,2,53.13,53.13,0,0,1-6.4-.8v-2A48.58,48.58,0,0,0,38,39.6ZM32.8,37A2.87,2.87,0,0,1,35,36a3,3,0,0,1,2.6,1.5C35.9,37.4,34.3,37.2,32.8,37Zm38,1.3a7.31,7.31,0,0,0,1.4,1.6,69.12,69.12,0,0,1-11.7,1.8,6.47,6.47,0,0,0,.4-2A71.21,71.21,0,0,0,70.8,38.3ZM61,37.6V35.5a4.5,4.5,0,0,1,9,0,2.77,2.77,0,0,0,.1.9A53,53,0,0,1,61,37.6ZM21,30c0-5.4,9.5-8,29-8s29,2.6,29,8v5.5c0,4.6-7,4.6-7,0a6.5,6.5,0,0,0-13,0V39a6,6,0,0,1-6,6H46a6,6,0,0,1-6-6,5,5,0,0,0-10,0v5.5c0,5.9-9,6-9,0Zm.1,19.2a6.37,6.37,0,0,0,6.1,1.5c5,1.5,12.5,2.2,22.8,2.2,15.4,0,24.7-1.7,28.5-5.1a3.64,3.64,0,0,1,.5,2.1c0,5.4-9.5,8-29,8C41.3,58,19.7,57.8,21.1,49.2Zm56.8,7.9C74.4,60.4,65.3,62,50,62s-24.4-1.6-27.9-4.9a9,9,0,0,1,1-.9C27.8,58.8,36.5,60,50,60s22.2-1.2,26.9-3.8A9,9,0,0,1,77.9,57.1Zm-56.4.8C25.3,61.3,34.6,63,50,63s24.7-1.7,28.5-5.1A3.64,3.64,0,0,1,79,60c0,5.4-9.5,8-29,8s-29-2.6-29-8A4.65,4.65,0,0,1,21.5,57.9ZM50,70c13.4,0,22.2-1.2,26.9-3.8a9,9,0,0,1,1,.9C74.4,70.4,65.3,72,50,72s-24.4-1.6-27.9-4.9a9,9,0,0,1,1-.9C27.8,68.8,36.6,70,50,70Zm0,8c-19.5,0-29-2.6-29-8a4.65,4.65,0,0,1,.5-2.1C25.3,71.3,34.6,73,50,73s24.7-1.7,28.5-5.1A3.64,3.64,0,0,1,79,70C79,75.4,69.5,78,50,78Z"/></svg>