<svg id="Ebene_1" data-name="Ebene 1" xmlns="http://www.w3.org/2000/svg" viewBox="0 0 100 100"><defs><style>.cls-1{fill:var(--green);}</style></defs><path class="cls-1" d="M89.36,50.51l-2.8.8a1.15,1.15,0,0,0-.9.6c-3.1,6.8-14.4,8-14.5,8a.76.76,0,0,0-.5.2L64,64.61l-5.5.9a2,2,0,0,1-2-.7,3.16,3.16,0,0,1-.3-2.7,2.39,2.39,0,0,1,2.1-1.5h0c1.4-.2,2.8-.4,3.9-.6a.76.76,0,0,0,.4-.2l9.1-6.7a1.08,1.08,0,0,0,.3-1.4,6.54,6.54,0,0,0-3.7-3.2,7.11,7.11,0,0,0-5.6.7c-.5.3-1.1.6-1.8,1a9.13,9.13,0,0,0-1.3.8l.8-5.7a1.16,1.16,0,1,0-2.3-.3l-1,7.4v.1a1.15,1.15,0,0,0,.6,1.1c.8.5,1.8,0,4.3-1.5.6-.3,1.2-.7,1.7-.9a4.77,4.77,0,0,1,3.9-.6,4,4,0,0,1,1.9,1.3l-8,5.9a45.63,45.63,0,0,1-5.7.8l-.6.1c-1.1.1-2,.2-2.4-.2a3.71,3.71,0,0,1-.6-2.1c-.1-.9.3-7,.6-11.5.2-3.7.4-7,.4-8,0-2.5,4.7-2.7,4.7-2.7H58c.5-.1,3.9.4,7.2.8,13.8,1.9,21.4,3.3,24.8,1.5a1.1,1.1,0,1,0-1.1-1.9c-3,1.7-15.2-.6-23.5-1.7-5.2-.7-7-.9-7.7-.8-2,.1-5,.8-6.3,2.9-1.2-2.1-4.3-2.8-6.3-2.9-.7-.1-2.4.2-7,.8-8.4,1.2-23.1,3.7-27.1,1.6a1.12,1.12,0,1,0-1,2c4.3,2.3,14.9.5,28.6-1.4,3-.4,5.9-.9,6.4-.8h.1s4.7.2,4.7,2.7l-.1,11.4h0a53.49,53.49,0,0,1,.1,7.9,4.21,4.21,0,0,1-1.1,2.6c-.3.2-.8.4-2.1.1a56.92,56.92,0,0,1-5.9-1.5h-.1c-.5-.3-1.3-2.7-1.6-5.1a41.37,41.37,0,0,0,4.3-2l.7,3.7a1.17,1.17,0,0,0,1.1.9h.2a1.13,1.13,0,0,0,.9-1.3l-1-5.2a1,1,0,0,0-.6-.8,1.18,1.18,0,0,0-1,.1c-10.1,5.9-21.6,6.7-29.4,2.1a1.42,1.42,0,0,0-.6-.2h-3a1.1,1.1,0,1,0,0,2.2h2.7a35.39,35.39,0,0,0,3.4,1.6c4.8,7,13.3,7.3,15.3,7.3l6.6,4.6.1.1a6.14,6.14,0,0,0,3,.8,4.65,4.65,0,0,0,3.5-1.6,4.53,4.53,0,0,0,1-3.5h0a7.72,7.72,0,0,0,1.5.2,3.51,3.51,0,0,0,2.3-.7,2.58,2.58,0,0,0,.9-.9,1.21,1.21,0,0,0,.5.5,3.75,3.75,0,0,0,2.5.8h.4c0,.1-.1.2-.1.3a4.8,4.8,0,0,0,.6,4.9,4.22,4.22,0,0,0,3.3,1.6,2.2,2.2,0,0,0,.8-.1l5.8-.9a.52.52,0,0,0,.4-.2l6.6-4.5c1.9-.2,12.1-1.8,15.8-8.7l2.2-.8a1.11,1.11,0,0,0,1-1.2A1.2,1.2,0,0,0,89.36,50.51Zm-46,12.8c-.8.9-2.2,1-3.7.3l-6.8-4.8a1.85,1.85,0,0,0-.7-.2c-.1,0-6.9.3-11.7-4a33.27,33.27,0,0,0,16.4-1.3c.3,2.3,1.2,6,3.2,6.5.8.2,2.3.6,3.6.9A2.48,2.48,0,0,1,43.36,63.31Z"/></svg>