<svg id="Ebene_1" data-name="Ebene 1" xmlns="http://www.w3.org/2000/svg" viewBox="0 0 100 100"><defs><style>.cls-1{fill:#7fc17f;}</style></defs><path class="cls-1" d="M33.25,58.35h-9.6a1.16,1.16,0,0,0-1.2,1.2v16.8a1.16,1.16,0,0,0,1.2,1.2h9.6a1.16,1.16,0,0,0,1.2-1.2V59.55A1.22,1.22,0,0,0,33.25,58.35Zm-1.2,16.8h-7.2V60.75h7.2Z"/><path class="cls-1" d="M47.65,53.55h-9.6a1.16,1.16,0,0,0-1.2,1.2v21.6a1.16,1.16,0,0,0,1.2,1.2h9.6a1.16,1.16,0,0,0,1.2-1.2V54.75A1.29,1.29,0,0,0,47.65,53.55Zm-1.2,21.6h-7.2V56h7.2Z"/><path class="cls-1" d="M62,46.35h-9.6a1.16,1.16,0,0,0-1.2,1.2v28.7a1.16,1.16,0,0,0,1.2,1.2H62a1.16,1.16,0,0,0,1.2-1.2V47.55A1.22,1.22,0,0,0,62,46.35Zm-1.2,28.8h-7.2V48.75h7.2Z"/><path class="cls-1" d="M76.35,36.85h-9.6a1.16,1.16,0,0,0-1.2,1.2v38.3a1.16,1.16,0,0,0,1.2,1.2h9.6a1.16,1.16,0,0,0,1.2-1.2V38.05A1.16,1.16,0,0,0,76.35,36.85Zm-1.2,38.3H68V39.25h7.2Z"/><path class="cls-1" d="M68.85,32.05a1.16,1.16,0,0,0,1.2-1.2v-7.5c0-.1,0-.1-.1-.2s-.1-.1-.1-.2l-.2-.2v-.1a.1.1,0,0,1-.1-.1c-.1,0-.1-.1-.2-.1h-7.2a1.2,1.2,0,1,0,0,2.4h4.3c-7.4,8.4-23.7,21.6-42.6,21.6a1.2,1.2,0,1,0,0,2.4c19.4,0,36.1-13.1,44-21.9v3.9A1,1,0,0,0,68.85,32.05Z"/></svg>