<svg xmlns="http://www.w3.org/2000/svg" viewBox="0 0 680.49 59.17"><defs><style>.cls-1{fill:#e55c73;}</style></defs><g id="Ebene_2" data-name="Ebene 2"><g id="Ebene_1-2" data-name="Ebene 1"><path class="cls-1" d="M15.07,51.42q.66-2.46,1.3-4.92h-13c-.44,1.64-.87,3.28-1.31,4.92Z"/><path class="cls-1" d="M17.09,43.67l1.23-4.92H5.41q-.64,2.46-1.31,4.92Z"/><path class="cls-1" d="M19,35.92l.37-1.49c.3-1.15.61-2.28.91-3.43H7.48q-.66,2.46-1.31,4.92Z"/><path class="cls-1" d="M44.37,57.91c.2.81.49,1.18,1.2,1.26h2.91c2.68,0,5.37,0,8.05,0,.36,0,.71-.06,1.23-.11-.43-1.6-.85-3.2-1.28-4.8h-13C43.75,55.47,44.07,56.69,44.37,57.91Z"/><path class="cls-1" d="M21.07,28.17c.43-1.64.87-3.29,1.3-4.92H9.54q-.64,2.46-1.31,4.92Z"/><path class="cls-1" d="M14.32,54.25h-13C.86,55.86.43,57.46,0,59.07H13.05C13.48,57.46,13.9,55.86,14.32,54.25Z"/><path class="cls-1" d="M11.61,15.5Q11,18,10.3,20.42H23.13q.64-2.46,1.31-4.92Z"/><path class="cls-1" d="M13.67,7.75q-.64,2.46-1.31,4.92h33q-.64-2.46-1.31-4.92Z"/><path class="cls-1" d="M33.31,15.5l1.32,4.92H47.46c-.44-1.64-.87-3.28-1.31-4.92Z"/><path class="cls-1" d="M15.56.64,14.43,4.92h28.9L42.19.64Z"/><path class="cls-1" d="M39.44,38.75l1.22,4.92h13c-.44-1.64-.87-3.28-1.31-4.92Z"/><path class="cls-1" d="M41.36,46.5c.14.47.26.9.37,1.32l1,3.6h13Q55.07,49,54.42,46.5Z"/><path class="cls-1" d="M35.38,23.25l1.32,4.92H49.53q-.66-2.46-1.31-4.92Z"/><path class="cls-1" d="M37.46,31c.3,1.15.61,2.28.91,3.43l.37,1.49H51.59q-.65-2.46-1.31-4.92Z"/><path class="cls-1" d="M118.06,46.5a10.73,10.73,0,0,1-4.22,2,19.76,19.76,0,0,1-6.33.4,11,11,0,0,1-6.05-2.45H86.21a22.08,22.08,0,0,0,2.69,4.92h41.74a21.3,21.3,0,0,0,2.59-4.92Z"/><path class="cls-1" d="M97.49,39.88c-.07-.37-.13-.75-.18-1.13H84.55a2.26,2.26,0,0,1,0,.26,26.82,26.82,0,0,0,.75,4.66H99A11.65,11.65,0,0,1,97.49,39.88Z"/><path class="cls-1" d="M97.11,35.32c0-1.44,0-2.88,0-4.32H84.44v4.25c0,.22,0,.44,0,.67H97.12C97.11,35.72,97.11,35.52,97.11,35.32Z"/><path class="cls-1" d="M122.43,20.42h12.64V15.5H122.43Z"/><path class="cls-1" d="M91.37,54.25a22.42,22.42,0,0,0,8.15,4.92H120a22.46,22.46,0,0,0,8.24-4.92Z"/><path class="cls-1" d="M122.23,38.75a13.31,13.31,0,0,1-1.71,4.92h13.59c0-.2.11-.4.15-.6a31,31,0,0,0,.64-4.32Z"/><path class="cls-1" d="M97.09,2.44c0-.58-.06-1.16-.09-1.77H84.43V2.38c0,.84,0,1.69,0,2.54H97.09Z"/><path class="cls-1" d="M97.09,12.67V7.75H84.44v4.92Z"/><path class="cls-1" d="M135,.71H122.43V4.92h12.63V2C135.06,1.6,135,1.15,135,.71Z"/><path class="cls-1" d="M122.43,23.25c0,1.64,0,3.28,0,4.92h12.63c0-1.64,0-3.28,0-4.92Z"/><path class="cls-1" d="M122.43,7.75v4.92h12.64c0-1.64,0-3.28,0-4.92Z"/><path class="cls-1" d="M97.09,20.42V15.5H84.44v4.92Z"/><path class="cls-1" d="M122.42,31v3.81c0,.37,0,.74,0,1.11H135c0-1.64,0-3.28,0-4.92Z"/><path class="cls-1" d="M97.1,28.17c0-1.64,0-3.28,0-4.92H84.44v4.92Z"/><path class="cls-1" d="M160.4,4.92h50.43V.7H160.4Z"/><path class="cls-1" d="M179.33,46.5v4.92H192V46.5Z"/><path class="cls-1" d="M179.33,54.25v4.82H192V54.25Z"/><path class="cls-1" d="M160.4,7.75v4.6c6.32,0,44.14-.08,50.43-.08V7.75Z"/><path class="cls-1" d="M179.33,31v4.92H192V31Z"/><path class="cls-1" d="M179.33,15.5v4.92H192V15.5Z"/><path class="cls-1" d="M179.33,38.75v4.92H192V38.75Z"/><path class="cls-1" d="M179.33,23.25v4.92H192V23.25Z"/><path class="cls-1" d="M247.41,28.17a20.54,20.54,0,0,1,1-4.92H234.56a31.33,31.33,0,0,0-.69,4.92Z"/><path class="cls-1" d="M237.45,15.5a30,30,0,0,0-2.1,4.92h14.21a18,18,0,0,1,3.79-4.92Z"/><path class="cls-1" d="M246.06,54.25a32.4,32.4,0,0,0,9.54,4.92h21.46a32.61,32.61,0,0,0,9.36-4.77l.19-.15Z"/><path class="cls-1" d="M239.16,12.67h18.29a20.34,20.34,0,0,1,17.8,0h18.24a33.73,33.73,0,0,0-4.16-4.92h-46A30.54,30.54,0,0,0,239.16,12.67Z"/><path class="cls-1" d="M276.33,46.5a20.27,20.27,0,0,1-20,0H238.72a30.45,30.45,0,0,0,4,4.92H289.9a30.61,30.61,0,0,0,4-4.92Z"/><path class="cls-1" d="M248.19,35.92a21.17,21.17,0,0,1-.8-4.92H233.84a30.25,30.25,0,0,0,.55,4.92Z"/><path class="cls-1" d="M285.23,31a21.08,21.08,0,0,1-.78,4.92h13.84a29.14,29.14,0,0,0,.6-4.92Z"/><path class="cls-1" d="M257.76,0a31.52,31.52,0,0,0-7,2.53,32.37,32.37,0,0,0-3.95,2.39H286A30.69,30.69,0,0,0,275.5,0Z"/><path class="cls-1" d="M279.34,15.5a17.81,17.81,0,0,1,3.74,4.92h14.3a30.41,30.41,0,0,0-2.14-4.92Z"/><path class="cls-1" d="M284.24,23.25a20.94,20.94,0,0,1,1,4.92h13.65a29.43,29.43,0,0,0-.69-4.92Z"/><path class="cls-1" d="M283.37,38.75A17.68,17.68,0,0,1,280,43.67h15.59a30.75,30.75,0,0,0,2-4.92Z"/><path class="cls-1" d="M252.68,43.67a18.46,18.46,0,0,1-3.4-4.92H235.11a29.54,29.54,0,0,0,2,4.92Z"/><path class="cls-1" d="M335.25,28.17H368A21.81,21.81,0,0,0,365,27c-4.35-1.33-8.74-2.52-13.11-3.77H331.37A15.26,15.26,0,0,0,335.25,28.17Z"/><path class="cls-1" d="M365,43.67H378.1a15.36,15.36,0,0,0-.51-4.92H362.44A4.75,4.75,0,0,1,365,43.67Z"/><path class="cls-1" d="M344.32,32.8c3.62,1.17,7.34,2,11,3.12h21.17a15.64,15.64,0,0,0-3.9-4.92H339.82A36.08,36.08,0,0,0,344.32,32.8Z"/><path class="cls-1" d="M363.86,16.17c.32.76.83.74,1.44.74h10.59a9.87,9.87,0,0,0,1.23-.14c-.1-.47-.14-.79-.23-1.09a1.09,1.09,0,0,1-.05-.17H363.51C363.63,15.72,363.75,15.94,363.86,16.17Z"/><path class="cls-1" d="M335.33,4.92H370.4A21.86,21.86,0,0,0,362.91.57Q362,.26,361.05,0H344.46A20.69,20.69,0,0,0,335.33,4.92Z"/><path class="cls-1" d="M343.15,15.5H329.94a14.51,14.51,0,0,0,.39,4.92h15l-.24-.17A4.72,4.72,0,0,1,343.15,15.5Z"/><path class="cls-1" d="M335,54.25a23,23,0,0,0,7.1,4.38l1.47.54h21.32a20.28,20.28,0,0,0,8.28-4.92Z"/><path class="cls-1" d="M340.75,41.48c-.27-.68-.7-.74-1.3-.74h-11a8,8,0,0,0-.87.1,3.82,3.82,0,0,0,.05.71c.19.72.42,1.42.66,2.11h13.59A14.09,14.09,0,0,1,340.75,41.48Z"/><path class="cls-1" d="M332.87,7.75a16.22,16.22,0,0,0-2.39,4.92h14.25a6.34,6.34,0,0,1,3.93-2,32.68,32.68,0,0,1,7.19-.17,10.56,10.56,0,0,1,5.38,2.19h14.59A22.73,22.73,0,0,0,373,7.75Z"/><path class="cls-1" d="M363.63,46.5A7.54,7.54,0,0,1,359.48,49a22.29,22.29,0,0,1-7.89.45,13.58,13.58,0,0,1-7.27-2.94h-14.9a25.26,25.26,0,0,0,2.95,4.92h43.1a15.79,15.79,0,0,0,2.17-4.92Z"/><path class="cls-1" d="M401.46,7.75v4.59h18.92v.33h12.67v-.41H451.9V7.75Z"/><path class="cls-1" d="M420.38,54.25v4.82h12.67V54.25Z"/><path class="cls-1" d="M401.46,4.92H451.9V.7H401.46Z"/><path class="cls-1" d="M420.38,46.5v4.92h12.67V46.5Z"/><path class="cls-1" d="M420.38,23.25v4.92h12.67V23.25Z"/><path class="cls-1" d="M420.38,38.75v4.92h12.67V38.75Z"/><path class="cls-1" d="M420.38,15.5v4.92h12.67V15.5Z"/><path class="cls-1" d="M420.38,31v4.92h12.67V31Z"/><path class="cls-1" d="M489.08,35.92,490.36,31H477.44q-.65,2.46-1.31,4.92Z"/><path class="cls-1" d="M481.57,15.5q-.65,2.46-1.31,4.92h12.87c.49-1.86.92-3.52,1.29-4.92Z"/><path class="cls-1" d="M487.05,43.67l1.29-4.92h-13q-.66,2.46-1.31,4.92Z"/><path class="cls-1" d="M484.29,54.25H471.24c-.43,1.61-.85,3.22-1.28,4.83H483C483.23,58.32,483.68,56.6,484.29,54.25Z"/><path class="cls-1" d="M491.1,28.17l1.29-4.92H479.51q-.66,2.46-1.31,4.92Z"/><path class="cls-1" d="M514.35,58c.19.75.45,1.13,1.15,1.21h2.78c2.76,0,5.51,0,8.27,0a9.69,9.69,0,0,0,1.09-.13c-.08-.39-.12-.67-.19-.93l-1-3.84h-13C513.88,56.1,514.22,57.41,514.35,58Z"/><path class="cls-1" d="M485,51.42c.39-1.51.82-3.16,1.28-4.92h-13c-.44,1.64-.87,3.28-1.31,4.92Z"/><path class="cls-1" d="M507.35,31c.42,1.63.85,3.28,1.28,4.92h12.93c-.44-1.64-.87-3.28-1.31-4.92Z"/><path class="cls-1" d="M483.64,7.75c-.44,1.64-.87,3.28-1.31,4.92h12.84c0-.11.06-.23.09-.32h7.2l.08.32h12.85q-.66-2.46-1.31-4.92Z"/><path class="cls-1" d="M503.29,15.5c.37,1.4.8,3.06,1.29,4.92h12.86c-.43-1.64-.87-3.28-1.3-4.92Z"/><path class="cls-1" d="M511.39,46.5c.46,1.78.9,3.44,1.28,4.92h13c-.43-1.64-.87-3.28-1.3-4.92Z"/><path class="cls-1" d="M510.81.57c-8,0-16,0-24,0h-1.3c-.39,1.44-.77,2.88-1.15,4.33h28.93c-.28-1.07-.57-2.14-.85-3.2S511.7.57,510.81.57Z"/><path class="cls-1" d="M505.32,23.25c.41,1.57.84,3.22,1.29,4.92H519.5c-.43-1.64-.87-3.28-1.3-4.92Z"/><path class="cls-1" d="M509.37,38.75c.44,1.68.87,3.33,1.28,4.92h13c-.44-1.64-.87-3.28-1.31-4.92Z"/><path class="cls-1" d="M554.94,38.75v4.92H567.5V38.75Z"/><path class="cls-1" d="M567.5,51.42V46.5H554.94v4.92Z"/><path class="cls-1" d="M584.05,46.5l3.38,4.92h14.88L599,46.5Z"/><path class="cls-1" d="M593.51.56A2.64,2.64,0,0,0,591,1.88c-.69,1-1.4,2-2.1,3H603.3l2.79-4a2.9,2.9,0,0,1-.19-.29C601.77.59,597.64.63,593.51.56Z"/><path class="cls-1" d="M578.72,38.75l3.38,4.92h15l-3.32-4.92Z"/><path class="cls-1" d="M567.5,54.25H554.94v4.8H567.5Z"/><path class="cls-1" d="M592.05,58.14a2.06,2.06,0,0,0,1.78,1h3.09c3.06,0,6.11,0,9.17,0,.39,0,.77-.07,1.36-.13l-3.22-4.77H589.38C590.27,55.55,591.17,56.84,592.05,58.14Z"/><path class="cls-1" d="M587,7.75l-3.41,4.92h14.4l3.4-4.92Z"/><path class="cls-1" d="M567.41,12.67V7.75H554.94v4.92Z"/><path class="cls-1" d="M567.41,20.42V15.5H554.94v4.92Z"/><path class="cls-1" d="M581.57,15.5l-3.41,4.92h14.42L596,15.5Z"/><path class="cls-1" d="M575.92,23.25a2.68,2.68,0,0,1-1.62.38c-1.85-.09-3.71,0-5.57,0-.4,0-.8-.06-1.32-.11v-.24H554.94v4.92h32.28l3.4-4.92Z"/><path class="cls-1" d="M554.94,31v4.92H567.5v-.58c2.59,0,5,0,7.49,0a2.16,2.16,0,0,1,1.71.6h15.13L588.5,31Z"/><path class="cls-1" d="M554.94,4.92h12.47V.7H554.94Z"/><rect class="cls-1" x="629.66" y="0.67" width="50.81" height="4.24"/><rect class="cls-1" x="629.66" y="7.75" width="50.81" height="3.98"/><rect class="cls-1" x="629.66" y="47.41" width="50.83" height="4"/><rect class="cls-1" x="629.66" y="54.25" width="50.83" height="4.8"/><rect class="cls-1" x="629.66" y="24.19" width="50.81" height="4.24"/><rect class="cls-1" x="629.66" y="31.26" width="50.81" height="3.98"/></g></g></svg>