<svg xmlns="http://www.w3.org/2000/svg" viewBox="0 0 1892.76 285.15"><defs><style>.cls-1{fill:#fcfcfc;}.cls-2{fill:#e6252a;}.cls-3{fill:#fbfbfb;}.cls-4{fill:#fefdfc;}</style></defs><title>Transparent</title><g id="Layer_2" data-name="Layer 2"><g id="Layer_1-2" data-name="Layer 1"><path class="cls-1" d="M370.05,242Q386,200.6,402,159.16q22.93-59.59,45.78-119.23c1.39-3.65,3.33-5.34,7.33-5.12A245,245,0,0,0,485,34.75c5.31-.36,7.67,3,9.25,7.46,5.5,15.33,11.09,30.63,16.58,46q25.64,71.63,51.22,143.26c3.14,8.79,4.3,9.6,13.67,9.42,1.17,0,2.34,0,3.5,0q410.47,0,821,0,223,0,446,.31c1.33,0,2.67,0,4,0,8-.24,10.85-2.85,10.9-11,.07-13-.33-26-.36-39q-.09-45,0-90c0-11.65.24-23.31.3-35,0-10-1.44-11.42-11.63-11.42q-108,0-216,0-240.45.13-480.9.32c-13.73,0-25,8.36-28.61,21.24-2,7-.32,10.85,6.22,14.39,11.14,6,23.28,8.72,35.63,10.8,19.4,3.26,38.68,7,56.39,16.1a56.52,56.52,0,0,1,18,86.23c-8.76,10.68-21.17,15.34-33.68,19.42-24.61,8-49.56,6.52-74.51,1.66-11.29-2.2-22.23-5.61-33.17-9.16-10.19-3.32-18-10.64-27.62-14.82-2.39-1-2.5-3.45-1.33-5.61,6.2-11.58,12.37-23.18,18.78-34.63,2.47-4.41,5.93-2.51,8.94-.44a161.78,161.78,0,0,0,23.68,13.8c22.22,10.36,45.19,13,69.09,7.11,8.1-2,11.33-4.79,11.84-10.79.65-7.6-2.59-13.11-10.25-15.78-12.41-4.34-25.33-7-38-10.27-16.25-4.23-32.73-7.76-47.55-16.18-21.22-12-29.53-30.9-27.78-54.44,1.77-24,14.17-40.25,37.1-48.23,14.26-5,28.64-8.92,44-6.42a28,28,0,0,0,4.49,0q361.48,0,723-.1c4.45,0,5.77,1,5.75,5.63q-.4,110.72-.42,221.44c0,7.82.82,15.64,0,23.45-.59,5.57-2.37,6.72-7.87,6.27-3.46-.29-7,0-10.45,0q-564.23,0-1128.43,0-92.49,0-185,.3c-12.42,0-16.62-2.81-21.1-14.27-4.23-10.82-8.39-21.68-12.58-32.52-.45-1.58-.79-3.21-1.37-4.74Q511,186.4,496.45,148.19c-7.84-20.48-15.76-40.93-23.95-62.19-1,2.62-1.77,4.43-2.44,6.27q-24.53,67.22-49,134.45c-.8,2.22-1.56,4.05-4.3,4.83C401.36,235.92,385.93,240,370.05,242Z"/><path class="cls-2" d="M370.05,242c15.88-2.06,31.31-6.09,46.68-10.46,2.74-.78,3.5-2.61,4.3-4.83q24.5-67.23,49-134.45c.67-1.84,1.42-3.65,2.44-6.27,8.19,21.26,16.11,41.71,23.95,62.19q14.63,38.2,29.11,76.44c.58,1.53.92,3.16,1.37,4.74-15.1,1.52-30.24,1.07-45.33.38-12.32-.56-24.56.58-36.84.52a8,8,0,0,0-3.67,1.39c-8.75,5.11-17.81,9.61-27,13.89a497.28,497.28,0,0,1-52.81,19,553.47,553.47,0,0,1-97.33,18,572.85,572.85,0,0,1-61.29,2.5c-46.36-.76-91.31-8.14-133.06-29.59-16.93-8.69-33.5-18.23-46.89-31.9C-.57,199.8-5.19,171.4,5.38,140.54,14.44,114.06,33.32,95.12,56,79.87c31.2-21,65.76-34.64,101.64-45.23,7.49-2.21,15.21-3.78,22.46-6.57,8.82-3.39,15-.06,21.1,6.48-10.49,4.05-20.75,7.83-30.88,11.93C133.24,61.49,97,78.13,64.09,101.24c-25.61,18-39.33,42.61-40.88,73.52-.91,18.34,7,34,19.67,47A131.73,131.73,0,0,0,71,243.53c-.85-3.13-2.72-4.09-4.29-5.44C55.31,228.34,45.45,217.43,40.38,203c-6.8-19.43-1.81-37,8.68-53.62,7.74-12.27,17.88-22.32,29.44-31C114,91.9,153.24,72.53,194.23,56.4A13.39,13.39,0,0,0,202,49.33C209.6,33.8,217.5,18.39,225.34,3c.51-1,.7-2.29,2.34-3,5.42,10.76,11,21.46,16.21,32.38,2,4.23,4,5.61,8.57,3.48,4-1.88,8.61-2.57,12.76-4.24,7.64-3.06,14.3-1.53,20.45,3.52,2.56,2.1,5.15,4.17,8.36,6.78-10.2,4.4-19.85,8.58-29.5,12.73-7.51,3.22-7.54,3.21-3.79,10.64Q305,153.07,349.31,240.87c1.53,3,3.07,4.15,6.49,3.38C360.48,243.2,365.3,242.73,370.05,242Zm-3.25,8c-2.74.47-5.49.9-8.22,1.44-1.26.25-3.44-.26-2.64,2.27.55,1.75,1.37,3.44,3.83,2.65,1.86-.6,3.74-1.15,5.61-1.72a118,118,0,0,0,32-11.42Zm-26.35-7.41,1.21-1q-57.37-108.07-115-216.67c-1,1.81-1.82,3-2.5,4.33Q215,46.44,205.89,63.63,183.52,106,161.15,148.32c-2.15,4.06-2,6.12,2.79,8.42,51.5,24.89,102.86,50.09,154.26,75.19C325.6,235.54,333,239.06,340.45,242.62ZM152.51,232.07c57.63,15.94,115.27,18.58,173.78,15-.87-1.87-2.23-2.18-3.35-2.75-31.33-16.1-62.69-32.13-94-48.35-2.76-1.43-4.64-.62-6.9.53q-20,10.22-40,20.36C172.54,221.77,163,226.7,152.51,232.07Zm18.28-123.13c-11.66,4.84-21.73,9.5-31.53,14.7-18.11,9.6-35.85,19.88-50.55,34.43C78,168.72,77.17,181.86,85.93,194.21c6.07,8.56,14.18,14.86,22.9,20.53,3.38,2.21,5,2.11,7-1.83,8.94-17.44,18.25-34.69,27.42-52C152.23,144,161.16,127.13,170.79,108.94ZM112.72,236.76l1,1,102.77-49.34C196.85,179,178,170,159.13,160.85c-3.39-1.65-4.89-.71-6.56,2.42-8.77,16.43-17.76,32.75-26.65,49.11Q119.29,224.56,112.72,236.76Zm237.61,21.62c-4.3-2.2-7.23-4.41-11.25-3.91-9.4,1.19-18.8,2.32-28.22,3.23a495.22,495.22,0,0,1-85.76.41,487,487,0,0,1-88.77-15.33,7.46,7.46,0,0,0-5.78.41c-5,2.64-10,5.14-15.6,8a116.71,116.71,0,0,0,27.88,10.38c28.45,7.14,57.59,7.81,86.67,8.48a508.44,508.44,0,0,0,89.05-5.48A303.39,303.39,0,0,0,350.33,258.38ZM81.45,225.28a67.7,67.7,0,0,0,13.12,13.27c7.61,5.67,5.22,5.91,9.86-2.22,1.2-2.1.6-2.89-1.34-3.55C96.23,230.42,89.38,228,81.45,225.28Z"/><path class="cls-1" d="M868.67,150.24c.61-21,5.56-42.41,24.3-57.48,37.55-30.23,87.36-25.18,114.18,14.19,17.94,26.34,19.83,75.62-14.07,105.38C972.17,230.68,948,232.53,922.35,225,888.3,215,868.56,188.11,868.67,150.24Zm115.52,1.32c0-25.08-17.18-42.16-42.51-42.25-19.28-.07-38.92,21.29-38.89,42.3,0,21.2,20,43.53,39.22,42.59C966.42,193,985,178.45,984.19,151.56Z"/><path class="cls-3" d="M570.14,129.16q0-21,0-41.95c0-5.86,1.8-8.1,7.48-8.28a131.06,131.06,0,0,1,15.48.32c7.65.67,10.18,3.37,10.72,11.1.36,5.14.49,10.31.48,15.47q-.06,26-.32,52a73.61,73.61,0,0,0,1.3,13.9c3.43,19,34.92,32.41,54.42,14.16,7.55-7.07,11-15.66,11-25.84q-.15-35.48-.31-71c0-8.74,1.41-10.21,10.11-10.17,4.82,0,9.64-.21,14.46.45,5.25.72,8,3.67,8.73,8.73a54.94,54.94,0,0,1,.63,7.46c0,24.82.67,49.69-.46,74.47-1.55,34-24,56.26-57.89,59.4-14.83,1.37-29.43.8-42.66-6.78C582,210.4,570.47,192,570.35,167.13c-.06-12.66,0-25.32,0-38Z"/><path class="cls-1" d="M1414.44,203.29c-1.85,4.27-3.6,8.58-5.56,12.8-2.71,5.88-7.14,8.71-13.88,8.44-8.78-.35-17.59-.09-27.13-.09,4.73-10.71,9.26-20.83,13.68-31q23.82-54.9,47.58-109.84c2.95-6.81,3.95-7.47,11.32-6.76a36.58,36.58,0,0,0,9.91-.55c8.52-1.53,14.91,1.54,19.58,8.75,3.84,5.94,5.9,12.64,8.48,19.12,15.37,38.63,33.59,76,48.92,114.69,1.82,4.6,1.24,5.53-3.56,5.46-5.47-.08-11,.92-16.43,1-13.5.27-18.23-3.22-22.35-15.94-.67-2-1.43-4.05-2.15-6.08-.25-4.58-2.26-8.61-4-12.68-7-15.78-14-31.53-21-47.29-2.79-6.28-5.56-12.56-8.77-19.83-1.85,4.13-3.28,7.23-4.64,10.36C1434.37,157,1423.67,179.83,1414.44,203.29Z"/><path class="cls-3" d="M1672.2,79.22c-9.3,13.51-18.12,26.36-27,39.19-4.35,6.3-8.78,12.54-13.17,18.81-4.53,6.45-4.51,7.83-.18,14.22q21.3,31.41,42.54,62.85c2,2.92,4.73,6.29,3.26,9.43-.93,2-5.18.27-7.93.39-6.14.29-12.3,0-18.42.47-7.8.53-13.9-2.5-17.84-8.87-14.34-23.21-28.83-46.33-43.77-69.15-1.81-2.77-1.38-5.35.42-7.86,13.3-18.52,25.9-37.52,38.54-56.5,1-1.58,2.34-3,4.37-3C1645.82,79.2,1658.61,79.22,1672.2,79.22Z"/><path class="cls-1" d="M1305.5,111.51q-31.45,0-62.92,0c-7.48,0-9.55-2-9.56-9.4a102.15,102.15,0,0,1,.7-15.43c.67-4.44,3-6.9,7.51-7.15,2.32-.13,4.64-.33,7-.34q56.94,0,113.86,0c3.82,0,7.64-.25,11.46-.27,4.38,0,7,2.2,7,6.62.08,6.14.48,12.29-.48,18.43-.63,4-2.77,6.31-6.7,6.88a47.62,47.62,0,0,1-6.95.53q-30.47.06-60.92,0Z"/><path class="cls-1" d="M791.19,111.51q-31.22,0-62.43,0c-7.55,0-9.62-1.92-9.52-9.37.08-5.15-.08-10.31.73-15.44.71-4.46,3.12-6.83,7.58-7.14,2.48-.18,5-.36,7.46-.36q56.44,0,112.88,0c4.15,0,8.31-.28,12.46-.24,3.95,0,6.32,2.22,6.42,6.15a169.41,169.41,0,0,1-.22,17.46c-.49,6.06-2.75,8.1-8.95,8.61-4.46.36-9,.22-13.47.22q-26.46,0-52.94,0Z"/><path class="cls-4" d="M1542.34,150.38q0-29.72,0-59.43c0-10.59,1.43-12.15,12.05-12.06,4.14,0,8.3.26,12.42.71,5.69.63,8.27,3.24,9,8.93a72.35,72.35,0,0,1,.5,9q0,51.72,0,103.42c0,5.32.37,10.65.26,16-.11,5.65-1.93,7.35-7.62,7.49-4.33.11-8.66.14-13,0-9.64-.31-12.69-3.06-12.92-12.55-.35-14.48-.3-29-.39-43.44,0-6,0-12,0-18Z"/><path class="cls-3" d="M1749.49,225.38H1701c-6.83,0-8.58-1.62-8.66-8.5a121.07,121.07,0,0,1,.42-15.46c.61-5.2,3.37-7.72,8.4-8.07,2.82-.19,5.64-.46,8.46-.47q46-.15,91.94-.23c7.41,0,9.38,1.95,9.39,9.5,0,3.83,0,7.67-.14,11.49-.38,8.94-2.58,11.28-11.4,11.49-10.49.24-21,.2-31.47.25C1761.82,225.41,1755.66,225.38,1749.49,225.38Z"/><path class="cls-3" d="M1749.83,112.52q-24.49,0-49,0c-6.67,0-8.4-1.56-8.47-8.13-.07-5.48-.31-11,.52-16.45.69-4.5,3.12-6.84,7.48-7.3a78.5,78.5,0,0,1,8-.43q39,0,78,0c5.48,0,11-.34,16.46-.26,6,.08,8.11,2.24,8.19,8.19.07,4.5.07,9-.14,13.49-.38,8.22-2.86,10.66-11,10.77-9.16.13-18.32,0-27.49,0h-22.48Z"/><path class="cls-1" d="M1753.47,136.51q24.48,0,49,0c6.78,0,8.53,1.75,8.55,8.58,0,4.83.11,9.68-.29,14.48-.53,6.4-2.76,8.73-9.13,8.86-15.64.32-31.29.3-46.94.4-18,.11-36,.18-53.94.31-5.62,0-8-1.83-8.24-7.57a124.64,124.64,0,0,1,.32-15.46c.59-7,3-9.24,10.26-9.44,8-.21,16-.15,24-.17C1735.82,136.49,1744.65,136.51,1753.47,136.51Z"/><path class="cls-3" d="M775,167.49c0-13.65,0-27.29,0-40.93,0-7.25,1.62-8.83,8.75-8.91,4.66-.05,9.33-.22,14,.08,6.43.41,9.28,3.07,10.23,9.44a80.87,80.87,0,0,1,.89,11.42c.12,25.78.12,51.57.17,77.35,0,6.89-1.14,8.22-8,8.46-5,.17-9.9,1.09-14.91.46-6.78-.87-9.08-2.85-10.06-9.53a84,84,0,0,1-.9-11.41c-.11-12.15,0-24.29,0-36.43Z"/><path class="cls-3" d="M1291,167.1c0-13.64,0-27.28,0-40.92,0-6.88,1.61-8.46,8.55-8.53,4.82,0,9.67-.22,14.46.13,6.15.45,9,3.22,9.87,9.27a85,85,0,0,1,.94,11.91c.09,25.79,0,51.59,0,77.38,0,6.57-1.16,7.82-7.8,8-5,.18-9.91,1.07-14.92.48-6.77-.8-9.07-2.77-10.17-9.42-1.58-9.58-.78-19.25-1-28.89C1290.89,180.08,1291,173.59,1291,167.1Z"/><path class="cls-2" d="M1414.44,203.29c9.23-23.46,19.93-46.29,30-69.41,1.36-3.13,2.79-6.23,4.64-10.36,3.21,7.27,6,13.55,8.77,19.83,7,15.76,14,31.51,21,47.29,1.79,4.07,3.8,8.1,4,12.68Z"/><path class="cls-3" d="M361.29,264.54a497.28,497.28,0,0,0,52.81-19c-2.73,7.81-5.44,15.63-8.21,23.42-1.68,4.73-4.73,7.3-10.11,6.92-9.77-.68-19.55-.36-29.33-.09-7.69.21-8.57-1.22-6-8.43C360.74,266.44,361,265.48,361.29,264.54Z"/><path class="cls-4" d="M340.45,242.62c-7.42-3.56-14.85-7.08-22.25-10.69-51.4-25.1-102.76-50.3-154.26-75.19-4.74-2.3-4.94-4.36-2.79-8.42q22.47-42.3,44.74-84.69Q215,46.43,224.13,29.26c.68-1.29,1.45-2.52,2.5-4.33q57.8,108.84,115,216.67Zm-66.29-65,.64-.78L225.54,84.11c-1.4,0-1.5.75-1.79,1.29-8.81,16.58-17.53,33.22-26.48,49.73-1.83,3.39-1,4.73,2.25,6.29,17.24,8.25,34.36,16.75,51.54,25.13C258.74,170.3,266.46,174,274.16,177.67Z"/><path class="cls-4" d="M112.72,236.76q6.6-12.19,13.2-24.38c8.89-16.36,17.88-32.68,26.65-49.11,1.67-3.13,3.17-4.07,6.56-2.42C178,170,196.85,179,216.51,188.39L113.74,237.73Z"/><path class="cls-3" d="M366.8,250l30.56-6.78a118,118,0,0,1-32,11.42C365.85,253.12,366.33,251.57,366.8,250Z"/><path class="cls-2" d="M984.19,151.56C985,178.45,966.42,193,942,194.2c-19.2.94-39.18-21.39-39.22-42.59,0-21,19.61-42.37,38.89-42.3C967,109.4,984.2,126.48,984.19,151.56Z"/><path class="cls-2" d="M274.16,177.67c-7.7-3.7-15.42-7.37-23.1-11.12-17.18-8.38-34.3-16.88-51.54-25.13-3.26-1.56-4.08-2.9-2.25-6.29,8.95-16.51,17.67-33.15,26.48-49.73.29-.54.39-1.33,1.79-1.29l49.26,92.78Z"/><rect class="cls-1" x="1153.22" y="18.54" width="739.54" height="12.25"/></g></g></svg>