<svg xmlns="http://www.w3.org/2000/svg" viewBox="0 0 1029.65 126.17"><defs><style>.cls-1{fill:#00ff85;}</style></defs><g id="Ebene_2" data-name="Ebene 2"><g id="Ebene_1-2" data-name="Ebene 1"><path class="cls-1" d="M465.3,123.52V5.18h57.51q48.57,0,48.57,30.5,0,18.39-19.23,25.19,23.7,7.79,23.7,28.18,0,16.9-12.85,25.69t-37.54,8.78ZM523,52.42q11.76,0,17.24-3.48t5.47-10.78q0-7-5.64-10t-18.4-3.07H490.33V52.42Zm.66,51.21q13.75,0,20.06-3.73t6.29-12q0-8.3-6.29-12.27t-19.89-4H490.33v32Z"/><path class="cls-1" d="M662.7,123.52V111.75a49.59,49.59,0,0,1-16.33,10.69,54.53,54.53,0,0,1-20,3.4q-17.07,0-26.19-6.88T591.1,99.32q0-14.25,11.93-21.21t37.63-7.63L661.87,70V66.67q0-7.29-5.3-11.19t-15.09-3.89q-18.72,0-22.37,10.61L596.73,60a27.31,27.31,0,0,1,14-19.39q11.35-6.3,31.57-6.3,43.26,0,43.26,34.14v55Zm-.83-38.95-20.72.5q-13.42.33-19.64,3.4t-6.21,9.19a9,9,0,0,0,4.55,8.13q4.56,2.82,13.18,2.81a44.24,44.24,0,0,0,12.76-1.74,27.29,27.29,0,0,0,9.78-5,15.41,15.41,0,0,0,6.3-12.6Z"/><path class="cls-1" d="M772.26,62a13.36,13.36,0,0,0-7.13-8q-5.31-2.57-14.92-2.57-20.55,0-20.55,8.95c0,2.43,1.27,4.26,3.81,5.47s7.4,2.38,14.59,3.48L759.49,71q15.09,2.16,23.21,5.55t11.52,8.62q3.39,5.22,3.39,13.18,0,13.76-11.43,20.8t-33.81,7q-22.71,0-34.81-7.46T703.47,96h23.7Q730,108.43,752,108.44q11.43,0,16.57-2.16t5.14-7q0-3.64-4.23-5.63t-15-3.48l-10.61-1.5q-20.71-3.13-29.08-9.36t-8.37-18.48q0-12.6,11.52-19.56t32.23-7q20.06,0,31,6t14.42,19Z"/><path class="cls-1" d="M835.73,86.23a20.69,20.69,0,0,0,3.57,11.43,22.62,22.62,0,0,0,9.45,7.79,32.8,32.8,0,0,0,14,2.82q19.39,0,24-11.77h23q-3.48,15.09-15.33,22.38t-32.57,7.29q-23.53,0-36.54-11.77t-13-33a48.47,48.47,0,0,1,6-24.28A42.41,42.41,0,0,1,835.82,40.4q11.35-6,26.6-6,23.21,0,35.88,11.69T911,78.77v7.46Zm52.21-15.08Q887.61,62,880.82,57t-18.9-5q-10.27,0-17.48,5.47t-8,13.76Z"/><path class="cls-1" d="M1005.46,123.52V109.93a37.09,37.09,0,0,1-15,12.1,49.8,49.8,0,0,1-20.64,4.14,43.71,43.71,0,0,1-22-5.47A38.49,38.49,0,0,1,932.69,105q-5.46-10.19-5.47-24A51.65,51.65,0,0,1,932.69,57,40.8,40.8,0,0,1,948.36,40.4q10.18-6,23.95-6,20.88,0,32.65,14.09V5.18h24.69V123.52Zm-.34-45.25a26.46,26.46,0,0,0-1.82-9.78,24.89,24.89,0,0,0-5.14-8.12q-6.63-7-18.89-7-12.93,0-19.73,6.88t-6.79,20.3q0,12.6,6.79,19.56t18.9,7a30,30,0,0,0,10.94-2,25.38,25.38,0,0,0,9-5.8,22.7,22.7,0,0,0,5-7.62,23.69,23.69,0,0,0,1.74-9Z"/><path class="cls-1" d="M306.85,123.52,281,79.27H246.35v44.25H220.83V5.18H279q49.56,0,49.56,37,0,11.94-5.55,19.89T306,74.46l29.83,49.06ZM277,58.88q13.1,0,19.31-4.06T302.54,42q0-8.78-5.89-12.59t-19.3-3.81h-31V58.88Z"/><path class="cls-1" d="M366.35,86.23a20.76,20.76,0,0,0,3.56,11.43,22.74,22.74,0,0,0,9.45,7.79,32.81,32.81,0,0,0,14,2.82q19.39,0,24-11.77h23q-3.48,15.09-15.33,22.38t-32.57,7.29Q369,126.17,356,114.4t-13-33a48.47,48.47,0,0,1,6-24.28,42.32,42.32,0,0,1,17.4-16.74q11.35-6,26.61-6,23.19,0,35.88,11.69T441.6,78.77v7.46Zm52.21-15.08Q418.23,62,411.43,57t-18.89-5q-10.28,0-17.49,5.47t-8,13.76Z"/><polygon class="cls-1" points="96.68 48.58 145.27 0 145.34 0.08 145.42 0 198.15 52.73 182.56 68.31 158.6 44.36 158.6 119.58 132.08 119.58 132.08 44.36 112.27 64.17 96.68 48.58"/><polygon class="cls-1" points="15.59 55.4 39.54 79.36 39.54 4.14 66.06 4.14 66.06 79.36 85.88 59.55 101.46 75.14 52.88 123.72 52.8 123.64 52.73 123.72 0 70.99 15.59 55.4"/></g></g></svg>